
<svg width="31px" height="30px" viewBox="0 0 31 30" version="1.1" xmlns="http://www.w3.org/2000/svg" xmlns:xlink="http://www.w3.org/1999/xlink">
    <g id="Page-1" stroke="none" stroke-width="1" fill="none" fill-rule="evenodd">
        <g id="Kurl.sh-Airgap-installer" transform="translate(-30.000000, -720.000000)" fill-rule="nonzero">
            <g id="Footer" transform="translate(0.000000, 705.000000)">
                <g id="Group-7" transform="translate(30.000000, 15.000000)">
                    <g id="Group-5">
                        <path d="M28.2492546,6.67216316 C28.0722485,6.10431949 27.6474341,5.6429465 27.116416,5.35902467 L16.3190482,0.177451148 C16.0358386,0.0354902296 15.7172277,0 15.4340181,0 C15.1508084,0 14.8321976,0 14.5489879,0.0709804591 L3.75162013,5.28804421 C3.22060197,5.53647581 2.83118871,5.9978488 2.68958389,6.6011827 L0.0344934641,18.2774682 C-0.0717101534,18.8808021 0.0698946699,19.484136 0.423906714,19.9809993 L7.89356121,29.2439492 C8.31837568,29.6698319 8.92019618,29.9537538 9.52201668,29.989244 L21.4168218,29.989244 C22.0540435,30.0602244 22.655864,29.7763026 23.0452773,29.2439492 L30.5149317,19.9809993 C30.8689438,19.484136 31.0105486,18.8808021 30.9397462,18.2774682 L28.2492546,6.67216316 Z" id="path10349" fill="#326DE6"></path>
                        <path d="M6.85987842,15.9492401 C7.04164225,15.7595735 7.23525733,15.5560801 7.44072948,15.3387538 C7.64620164,15.1214275 7.84771938,14.9041044 8.04528875,14.6867781 C8.24285813,14.4694518 8.43054622,14.2600314 8.60835866,14.0585106 C8.7861711,13.8569899 8.93829724,13.6811558 9.06474164,13.531003 L10.7598784,13.531003 C10.3647397,13.9735584 9.94787453,14.4319125 9.50927052,14.906079 C9.0706665,15.3802455 8.6300934,15.8425509 8.18753799,16.2930091 C8.42462125,16.4905785 8.67355493,16.7296339 8.9343465,17.0101824 C9.19513808,17.2907309 9.44802309,17.5890562 9.69300912,17.9051672 C9.93799515,18.2212782 10.1671722,18.5373844 10.3805471,18.8534954 C10.593922,19.1696064 10.7717318,19.4620047 10.9139818,19.7306991 L9.25440729,19.7306991 C9.11215734,19.4857131 8.94817722,19.2288767 8.76246201,18.9601824 C8.57674679,18.691488 8.37720471,18.4307004 8.16382979,18.1778116 C7.95045486,17.9249227 7.73313181,17.6858674 7.5118541,17.4606383 C7.2905764,17.2354092 7.07325335,17.0437698 6.85987842,16.8857143 L6.85987842,19.7306991 L5.42553191,19.7306991 L5.42553191,10.768997 L6.85987842,10.5319149 L6.85987842,15.9492401 Z M17.0425532,19.5410334 C16.7659561,19.6121584 16.4063852,19.685258 15.9638298,19.7603343 C15.5212744,19.8354107 15.035261,19.8729483 14.5057751,19.8729483 C14.0079002,19.8729483 13.5910351,19.8018244 13.2551672,19.6595745 C12.9192992,19.5173245 12.6506089,19.3197581 12.4490881,19.0668693 C12.2475674,18.8139805 12.1033439,18.5117039 12.0164134,18.1600304 C11.9294828,17.8083569 11.8860182,17.4231024 11.8860182,17.0042553 L11.8860182,13.531003 L13.3203647,13.531003 L13.3203647,16.7790274 C13.3203647,17.4428605 13.4171723,17.9170199 13.6107903,18.2015198 C13.8044083,18.4860197 14.1422468,18.6282675 14.6243161,18.6282675 C14.7981772,18.6282675 14.9819139,18.6203648 15.1755319,18.6045593 C15.3691499,18.5887537 15.5133734,18.5689971 15.6082067,18.5452888 L15.6082067,13.531003 L17.0425532,13.531003 L17.0425532,19.5410334 Z M22.4006079,14.8231003 C22.2820663,14.7835864 22.1180862,14.7420975 21.9086626,14.6986322 C21.6992391,14.655167 21.4562324,14.6334347 21.1796353,14.6334347 C21.0215798,14.6334347 20.8536483,14.64924 20.6758359,14.6808511 C20.4980234,14.7124622 20.3735566,14.7401215 20.3024316,14.7638298 L20.3024316,19.7306991 L18.8680851,19.7306991 L18.8680851,13.8273556 C19.1446822,13.7246195 19.4904235,13.627812 19.9053191,13.5369301 C20.3202148,13.4460482 20.7805446,13.4006079 21.2863222,13.4006079 C21.3811555,13.4006079 21.4917927,13.4065349 21.6182371,13.4183891 C21.7446815,13.4302432 21.871124,13.4460485 21.9975684,13.4658055 C22.1240128,13.4855624 22.246504,13.5092704 22.3650456,13.5369301 C22.4835872,13.5645898 22.5784191,13.5902734 22.6495441,13.6139818 L22.4006079,14.8231003 Z M25.8027356,19.8492401 C25.3759857,19.8413373 25.0223418,19.7939214 24.7417933,19.7069909 C24.4612448,19.6200604 24.2379948,19.4955935 24.0720365,19.3335866 C23.9060782,19.1715797 23.789514,18.970062 23.7223404,18.7290274 C23.6551668,18.4879927 23.6215805,18.2133754 23.6215805,17.9051672 L23.6215805,10.768997 L25.0559271,10.5319149 L25.0559271,17.6325228 C25.0559271,17.8063838 25.0697567,17.952583 25.0974164,18.0711246 C25.1250761,18.1896662 25.1744677,18.2904251 25.2455927,18.3734043 C25.3167177,18.4563834 25.4135252,18.5196046 25.5360182,18.5630699 C25.6585113,18.6065352 25.8145887,18.6401215 26.0042553,18.6638298 L25.8027356,19.8492401 Z" id="kurl" fill="#FFFFFF"></path>
                    </g>
                </g>
            </g>
        </g>
    </g>
</svg>