<?xml version="1.0" encoding="UTF-8"?>
<svg width="82px" height="20px" viewBox="0 0 82 20" version="1.1" xmlns="http://www.w3.org/2000/svg" xmlns:xlink="http://www.w3.org/1999/xlink">
    <!-- Generator: Sketch 59.1 (86144) - https://sketch.com -->
    <title>Replicated White/Red</title>
    <desc>Created with Sketch.</desc>
    <g id="Current" stroke="none" stroke-width="1" fill="none" fill-rule="evenodd">
        <g id="Product-link-back-to-site" transform="translate(-20.000000, -12.000000)" fill="#FFFFFF">
            <g id="Group-4">
                <g id="Replicated-White/Red" transform="translate(20.000000, 12.000000)">
                    <g id="D" transform="translate(73.901705, 3.914259)">
                        <path d="M7.05328249,0.0338974837 C7.62608554,0.0338974837 8.09049941,0.501260019 8.09049941,1.07769991 L8.09049941,10.4719217 C8.09049941,11.0481007 7.62608554,11.5157241 7.05328249,11.5157241 L1.23242114,11.5157241 C0.6596181,11.5157241 0.195204224,11.0481007 0.195204224,10.4719217 L0.195204224,1.07769991 C0.195204224,0.501260019 0.6596181,0.0338974837 1.23242114,0.0338974837 L7.05328249,0.0338974837 Z M3.9167126,2.48785089 L1.57208375,2.48785089 L1.57208375,9.21802796 L3.9167126,9.21802796 C7.65484237,9.21802796 7.50366801,2.48785089 3.9167126,2.48785089 Z M3.95586754,3.68274371 C5.73184221,3.68274371 5.69942918,7.9884287 4.11793268,7.9884287 L2.90387028,7.9884287 L2.90387028,3.68274371 L3.95586754,3.68274371 Z" id="Combined-Shape"></path>
                    </g>
                    <g id="E" transform="translate(65.863274, 3.392358)">
                        <path d="M6.85934886,0.230758621 C7.4321519,0.230758621 7.89656578,0.698121156 7.89656578,1.27456104 L7.89656578,11.4672917 C7.89656578,12.0437316 7.4321519,12.5110941 6.85934886,12.5110941 L1.04782246,12.5110941 C0.475019418,12.5110941 0.010605543,12.0437316 0.010605543,11.4672917 L0.010605543,1.27456104 C0.010605543,0.698121156 0.475019418,0.230758621 1.04782246,0.230758621 L6.85934886,0.230758621 Z M5.63452533,3.009726 L1.874614,3.009726 L1.874614,9.74016403 L5.63452533,9.74016403 L5.63452533,8.59850513 L3.08452753,8.59850513 L3.08452753,6.89136626 L5.63452533,6.89136626 L5.63452533,5.79328611 L3.06300528,5.79328611 L3.04148303,4.16234483 L5.63452533,4.16234483 L5.63452533,3.009726 Z" id="Combined-Shape"></path>
                    </g>
                    <g id="T" transform="translate(57.565539, 2.609506)">
                        <path d="M6.91701812,0.147045666 C7.48982116,0.147045666 7.95423504,0.614408201 7.95423504,1.19084809 L7.95423504,12.6293569 C7.95423504,13.2057968 7.48982116,13.6731594 6.91701812,13.6731594 L1.13012562,13.6731594 C0.557322581,13.6731594 0.0929087055,13.2057968 0.0929087055,12.6293569 L0.0929087055,1.19084809 C0.0929087055,0.614408201 0.557322581,0.147045666 1.13012562,0.147045666 L6.91701812,0.147045666 Z M5.76485164,3.62823113 L1.48218298,3.62823113 L1.48218298,4.90610624 L3.00948489,4.91236906 L3.00170576,10.4875788 L4.31430377,10.4875788 L4.31948986,4.91236906 L5.76485164,4.91236906 L5.76485164,3.62823113 Z" id="Combined-Shape"></path>
                    </g>
                    <g id="A" transform="translate(49.267804, 1.826654)">
                        <path d="M7.01425721,0.175567568 C7.58706025,0.175567568 8.05147412,0.642930103 8.05147412,1.21936999 L8.05147412,15.0380093 C8.05147412,15.6144492 7.58706025,16.0818117 7.01425721,16.0818117 L1.17265152,16.0818117 C0.599848475,16.0818117 0.135434599,15.6144492 0.135434599,15.0380093 L0.135434599,1.21936999 C0.135434599,0.642930103 0.599848475,0.175567568 1.17265152,0.175567568 L7.01425721,0.175567568 Z M4.64022326,4.41126561 L3.07376641,4.41126561 L1.04237707,11.2703523 L2.42550583,11.2703523 L2.8035714,10.1286934 L4.96435355,10.1286934 L5.26696158,11.2703523 L6.66072182,11.2703523 L4.64022326,4.41126561 Z M3.88072117,6.11553402 L4.62881387,8.86621435 L3.13262847,8.86621435 L3.88072117,6.11553402 Z" id="Combined-Shape"></path>
                    </g>
                    <g id="C" transform="translate(41.229373, 0.000000)">
                        <path d="M6.76374339,0 C7.33654643,0 7.80096031,0.467362535 7.80096031,1.04380242 L7.80096031,18.490699 C7.80096031,19.0671389 7.33654643,19.5345014 6.76374339,19.5345014 L1.04504791,19.5345014 C0.472244863,19.5345014 0.00783098774,19.0671389 0.00783098774,18.490699 L0.00783098774,1.04380242 C0.00783098774,0.467362535 0.472244863,0 1.04504791,0 L6.76374339,0 Z M2.62011366,6.76089096 C1.17215884,7.72849581 0.480853764,11.7515713 3.25748346,13.0779832 C5.07261306,13.7629786 6.26100435,12.4475266 6.4663733,11.5232395 C5.97836274,11.2949077 5.33191729,11.0449171 5.33191729,11.0449171 C4.62972144,13.0020466 2.22000723,11.5232395 2.82055583,9.07395713 C3.46285241,6.4563616 5.35343954,7.84827213 5.44004716,8.42445107 L6.4663733,7.86993103 C5.68846061,5.96707922 3.91222664,5.8968835 2.62011366,6.76089096 Z" id="Combined-Shape"></path>
                    </g>
                    <g id="I" transform="translate(32.931637, 0.000000)">
                        <path d="M6.88457916,-2.60950606e-05 C7.4573822,-2.60950606e-05 7.92179608,0.46733644 7.92179608,1.04377633 L7.92179608,18.4906729 C7.92179608,19.0671128 7.4573822,19.5344753 6.88457916,19.5344753 L1.06397712,19.5344753 C0.491174072,19.5344753 0.0267601965,19.0671128 0.0267601965,18.4906729 L0.0267601965,1.04377633 C0.0267601965,0.46733644 0.491174072,-2.60950606e-05 1.06397712,-2.60950606e-05 L6.88457916,-2.60950606e-05 Z M4.35942271,6.33692451 L3.1386184,6.33692451 L3.1386184,13.0780615 L4.35942271,13.0780615 L4.35942271,6.33692451 Z" id="Combined-Shape"></path>
                    </g>
                    <g id="L" transform="translate(24.633902, 1.826654)">
                        <path d="M6.96610441,0.13371109 C7.53890745,0.13371109 8.00332133,0.600812675 8.00332133,1.17751351 L8.00332133,15.0379049 C8.00332133,15.6143448 7.53890745,16.0817074 6.96610441,16.0817074 L1.12242429,16.0817074 C0.549621245,16.0817074 0.0852073699,15.6143448 0.0852073699,15.0379049 L0.0852073699,1.17751351 C0.0852073699,0.600812675 0.549621245,0.13371109 1.12242429,0.13371109 L6.96610441,0.13371109 Z M3.70698734,4.51019199 L2.49033189,4.51019199 L2.49033189,11.251329 L5.98004822,11.251329 L5.98004822,10.1858677 L3.70698734,10.1858677 L3.70698734,4.51019199 Z" id="Combined-Shape"></path>
                    </g>
                    <g id="P" transform="translate(16.336166, 2.609506)">
                        <path d="M7.05486425,0.185640261 C7.62766729,0.185640261 8.09208117,0.653002796 8.09208117,1.22944268 L8.09208117,12.6679515 C8.09208117,13.2443914 7.62766729,13.711754 7.05486425,13.711754 L1.17358501,13.711754 C0.60078197,13.711754 0.136368094,13.2443914 0.136368094,12.6679515 L0.136368094,1.22944268 C0.136368094,0.653002796 0.60078197,0.185640261 1.17358501,0.185640261 L7.05486425,0.185640261 Z M5.01854813,3.72720969 L2.11226632,3.72720969 L2.11226632,10.4686076 L3.37637444,10.4686076 L3.37637444,8.15789003 C7.52627934,8.57828145 7.52524212,4.0969767 5.01854813,3.72720969 Z M4.47841742,4.92340727 C5.60198265,4.92340727 5.60198265,6.86957689 4.47841742,6.86957689 L3.35485219,6.86957689 L3.35485219,4.92340727 L4.47841742,4.92340727 Z" id="Combined-Shape"></path>
                    </g>
                    <g id="E" transform="translate(8.297735, 3.392358)">
                        <path d="M6.79063324,0.238795899 C7.36343628,0.238795899 7.82785016,0.706158434 7.82785016,1.28259832 L7.82785016,11.475329 C7.82785016,12.0517689 7.36343628,12.5191314 6.79063324,12.5191314 L1.05897254,12.5191314 C0.486428805,12.5191314 0.0217556249,12.0517689 0.0217556249,11.475329 L0.0217556249,1.28259832 C0.0217556249,0.706158434 0.486428805,0.238795899 1.05897254,0.238795899 L6.79063324,0.238795899 Z M5.59122152,3.009726 L1.83131019,3.009726 L1.83131019,9.74016403 L5.59122152,9.74016403 L5.59122152,8.59850513 L3.04148303,8.59850513 L3.04148303,6.89136626 L5.59122152,6.89136626 L5.59122152,5.79328611 L3.01970148,5.79328611 L2.99817923,4.16234483 L5.59122152,4.16234483 L5.59122152,3.009726 Z" id="Combined-Shape"></path>
                    </g>
                    <g id="R" transform="translate(0.000000, 3.914259)">
                        <path d="M6.95256873,0.190493942 C7.52537177,0.190493942 7.98978565,0.657856477 7.98978565,1.23429637 L7.98978565,10.6282572 C7.98978565,11.2046971 7.52537177,11.6720596 6.95256873,11.6720596 L1.03732064,11.6720596 C0.464517597,11.6720596 0.000103721692,11.2046971 0.000103721692,10.6282572 L0.000103721692,1.23429637 C0.000103721692,0.657856477 0.464517597,0.190493942 1.03732064,0.190493942 L6.95256873,0.190493942 Z M4.45772494,2.54927866 L1.71558271,2.54927866 L1.71558271,9.31337931 L3.09663704,9.31337931 L3.09663704,6.87349115 L3.82217028,6.87349115 L4.84227312,9.31337931 L6.43077083,9.31337931 L5.14565906,6.67490774 C6.79483397,6.21720037 6.83191447,2.54927866 4.45772494,2.54927866 Z M4.19453115,3.76061137 C5.24341676,3.76061137 5.30227882,5.67885927 4.19453115,5.67885927 L3.08678348,5.67885927 L3.08678348,3.76061137 L4.19453115,3.76061137 Z" id="Combined-Shape"></path>
                    </g>
                </g>
            </g>
        </g>
    </g>
</svg>